<svg width="195" height="20" viewBox="0 0 195 20" fill="none" xmlns="http://www.w3.org/2000/svg">
<path d="M1.432 19C1.128 19 0.88 18.904 0.688 18.712C0.496 18.52 0.4 18.272 0.4 17.968V1.288C0.4 0.983999 0.496 0.735999 0.688 0.543999C0.88 0.351999 1.128 0.256 1.432 0.256H5.872C7.04 0.256 8.08 0.503999 8.992 0.999999C9.92 1.496 10.64 2.184 11.152 3.064C11.68 3.928 11.944 4.936 11.944 6.088C11.944 7.176 11.68 8.144 11.152 8.992C10.64 9.84 9.92 10.504 8.992 10.984C8.08 11.464 7.04 11.704 5.872 11.704H2.464V17.968C2.464 18.272 2.368 18.52 2.176 18.712C1.984 18.904 1.736 19 1.432 19ZM11.44 19C11.232 19 11.056 18.96 10.912 18.88C10.768 18.784 10.648 18.648 10.552 18.472L6.016 11.248L8.056 10.72L12.256 17.416C12.512 17.816 12.552 18.184 12.376 18.52C12.216 18.84 11.904 19 11.44 19ZM2.464 9.736H5.872C6.656 9.736 7.352 9.584 7.96 9.28C8.584 8.96 9.072 8.528 9.424 7.984C9.776 7.424 9.952 6.792 9.952 6.088C9.952 5.32 9.776 4.648 9.424 4.072C9.072 3.48 8.584 3.024 7.96 2.704C7.352 2.368 6.656 2.2 5.872 2.2H2.464V9.736ZM20.7777 19.12C19.5617 19.12 18.4737 18.832 17.5137 18.256C16.5537 17.664 15.7937 16.864 15.2337 15.856C14.6737 14.848 14.3937 13.712 14.3937 12.448C14.3937 11.168 14.6817 10.024 15.2577 9.016C15.8497 8.008 16.6497 7.216 17.6577 6.64C18.6657 6.048 19.8017 5.752 21.0657 5.752C22.3137 5.752 23.4337 6.048 24.4257 6.64C25.4337 7.216 26.2257 8.008 26.8017 9.016C27.3937 10.024 27.6977 11.168 27.7137 12.448L26.8977 12.856C26.8977 14.04 26.6257 15.104 26.0817 16.048C25.5537 16.992 24.8257 17.744 23.8977 18.304C22.9857 18.848 21.9457 19.12 20.7777 19.12ZM21.0657 17.296C21.9617 17.296 22.7537 17.088 23.4417 16.672C24.1457 16.24 24.6977 15.656 25.0977 14.92C25.5137 14.184 25.7217 13.36 25.7217 12.448C25.7217 11.52 25.5137 10.696 25.0977 9.976C24.6977 9.24 24.1457 8.656 23.4417 8.224C22.7537 7.792 21.9617 7.576 21.0657 7.576C20.1857 7.576 19.3857 7.792 18.6657 8.224C17.9617 8.656 17.4017 9.24 16.9857 9.976C16.5697 10.696 16.3617 11.52 16.3617 12.448C16.3617 13.36 16.5697 14.184 16.9857 14.92C17.4017 15.656 17.9617 16.24 18.6657 16.672C19.3857 17.088 20.1857 17.296 21.0657 17.296ZM26.6817 19C26.3937 19 26.1457 18.912 25.9377 18.736C25.7457 18.544 25.6497 18.296 25.6497 17.992V14.032L26.1057 11.944L27.7137 12.448V17.992C27.7137 18.296 27.6177 18.544 27.4257 18.736C27.2337 18.912 26.9857 19 26.6817 19ZM35.0459 19C34.6299 19 34.3179 18.776 34.1099 18.328L28.8539 7.192C28.7419 6.968 28.7259 6.744 28.8059 6.52C28.9019 6.296 29.0779 6.12 29.3339 5.992C29.5739 5.864 29.8059 5.848 30.0299 5.944C30.2699 6.024 30.4539 6.176 30.5819 6.4L35.5739 17.224H34.5419L39.4859 6.4C39.5819 6.16 39.7579 6 40.0139 5.92C40.2699 5.84 40.5179 5.856 40.7579 5.968C41.0139 6.096 41.1819 6.28 41.2619 6.52C41.3419 6.744 41.3339 6.96 41.2379 7.168L36.0299 18.328C35.8219 18.776 35.4939 19 35.0459 19ZM45.1686 19C44.8646 19 44.6166 18.912 44.4246 18.736C44.2326 18.544 44.1366 18.288 44.1366 17.968V6.904C44.1366 6.584 44.2326 6.336 44.4246 6.16C44.6166 5.968 44.8646 5.872 45.1686 5.872C45.4726 5.872 45.7126 5.968 45.8886 6.16C46.0806 6.336 46.1766 6.584 46.1766 6.904V17.968C46.1766 18.288 46.0806 18.544 45.8886 18.736C45.7126 18.912 45.4726 19 45.1686 19ZM45.1446 3.496C44.7606 3.496 44.4326 3.36 44.1606 3.088C43.8886 2.8 43.7526 2.464 43.7526 2.08C43.7526 1.68 43.8886 1.352 44.1606 1.096C44.4486 0.839999 44.7766 0.711999 45.1446 0.711999C45.5126 0.711999 45.8326 0.839999 46.1046 1.096C46.3926 1.352 46.5366 1.68 46.5366 2.08C46.5366 2.464 46.4006 2.8 46.1286 3.088C45.8566 3.36 45.5286 3.496 45.1446 3.496ZM62.0399 19C61.7359 19 61.4879 18.904 61.2959 18.712C61.1039 18.52 61.0079 18.28 61.0079 17.992V11.872C61.0079 10.896 60.8239 10.104 60.4559 9.496C60.1039 8.872 59.6159 8.408 58.9919 8.104C58.3679 7.784 57.6559 7.624 56.8559 7.624C56.1039 7.624 55.4239 7.776 54.8159 8.08C54.2239 8.368 53.7519 8.768 53.3999 9.28C53.0479 9.776 52.8719 10.352 52.8719 11.008H51.4799C51.5119 10 51.7759 9.104 52.2719 8.32C52.7839 7.52 53.4639 6.888 54.3119 6.424C55.1599 5.96 56.1039 5.728 57.1439 5.728C58.2639 5.728 59.2639 5.968 60.1439 6.448C61.0399 6.912 61.7439 7.6 62.2559 8.512C62.7839 9.424 63.0479 10.544 63.0479 11.872V17.992C63.0479 18.28 62.9519 18.52 62.7599 18.712C62.5679 18.904 62.3279 19 62.0399 19ZM51.8639 19C51.5439 19 51.2879 18.912 51.0959 18.736C50.9199 18.544 50.8319 18.296 50.8319 17.992V6.904C50.8319 6.584 50.9199 6.336 51.0959 6.16C51.2879 5.968 51.5439 5.872 51.8639 5.872C52.1679 5.872 52.4079 5.968 52.5839 6.16C52.7759 6.336 52.8719 6.584 52.8719 6.904V17.992C52.8719 18.296 52.7759 18.544 52.5839 18.736C52.4079 18.912 52.1679 19 51.8639 19ZM73.0969 19.12C71.8329 19.12 70.6969 18.832 69.6889 18.256C68.6809 17.664 67.8809 16.864 67.2889 15.856C66.7129 14.848 66.4249 13.704 66.4249 12.424C66.4249 11.16 66.7049 10.024 67.2649 9.016C67.8249 8.008 68.5849 7.216 69.5449 6.64C70.5049 6.048 71.5929 5.752 72.8089 5.752C73.8489 5.752 74.7849 5.976 75.6169 6.424C76.4649 6.856 77.1529 7.432 77.6809 8.152V1.288C77.6809 0.967999 77.7769 0.719999 77.9689 0.543999C78.1769 0.351999 78.4249 0.256 78.7129 0.256C79.0169 0.256 79.2649 0.351999 79.4569 0.543999C79.6489 0.719999 79.7449 0.967999 79.7449 1.288V12.496C79.7129 13.744 79.4009 14.872 78.8089 15.88C78.2329 16.872 77.4489 17.664 76.4569 18.256C75.4649 18.832 74.3449 19.12 73.0969 19.12ZM73.0969 17.296C73.9929 17.296 74.7849 17.08 75.4729 16.648C76.1769 16.216 76.7289 15.64 77.1289 14.92C77.5449 14.184 77.7529 13.352 77.7529 12.424C77.7529 11.512 77.5449 10.688 77.1289 9.952C76.7289 9.216 76.1769 8.64 75.4729 8.224C74.7849 7.792 73.9929 7.576 73.0969 7.576C72.2169 7.576 71.4169 7.792 70.6969 8.224C69.9929 8.64 69.4329 9.216 69.0169 9.952C68.6009 10.688 68.3929 11.512 68.3929 12.424C68.3929 13.352 68.6009 14.184 69.0169 14.92C69.4329 15.64 69.9929 16.216 70.6969 16.648C71.4169 17.08 72.2169 17.296 73.0969 17.296ZM89.7303 19.144C88.5943 19.144 87.5783 18.912 86.6823 18.448C85.8023 17.968 85.1063 17.272 84.5943 16.36C84.0823 15.448 83.8263 14.328 83.8263 13V6.88C83.8263 6.592 83.9223 6.352 84.1143 6.16C84.3063 5.968 84.5463 5.872 84.8343 5.872C85.1223 5.872 85.3623 5.968 85.5543 6.16C85.7463 6.352 85.8423 6.592 85.8423 6.88V13C85.8423 13.976 86.0263 14.776 86.3943 15.4C86.7623 16.008 87.2583 16.472 87.8823 16.792C88.5063 17.096 89.2103 17.248 89.9943 17.248C90.7463 17.248 91.4263 17.104 92.0343 16.816C92.6423 16.512 93.1223 16.112 93.4743 15.616C93.8263 15.104 94.0023 14.52 94.0023 13.864H95.3703C95.3383 14.872 95.0743 15.776 94.5782 16.576C94.0823 17.36 93.4103 17.984 92.5623 18.448C91.7143 18.912 90.7703 19.144 89.7303 19.144ZM95.0103 19C94.7063 19 94.4583 18.912 94.2663 18.736C94.0903 18.544 94.0023 18.288 94.0023 17.968V6.88C94.0023 6.576 94.0903 6.336 94.2663 6.16C94.4583 5.968 94.7063 5.872 95.0103 5.872C95.3142 5.872 95.5623 5.968 95.7543 6.16C95.9463 6.336 96.0423 6.576 96.0423 6.88V17.968C96.0423 18.288 95.9463 18.544 95.7543 18.736C95.5623 18.912 95.3142 19 95.0103 19ZM100.859 19.384C100.459 19.384 100.115 19.24 99.8273 18.952C99.5393 18.664 99.3953 18.32 99.3953 17.92C99.3953 17.488 99.5393 17.128 99.8273 16.84C100.131 16.552 100.475 16.408 100.859 16.408C101.275 16.408 101.627 16.56 101.915 16.864C102.203 17.152 102.347 17.504 102.347 17.92C102.347 18.304 102.203 18.648 101.915 18.952C101.643 19.24 101.291 19.384 100.859 19.384ZM111.675 19.12C110.411 19.12 109.275 18.832 108.267 18.256C107.259 17.664 106.459 16.864 105.867 15.856C105.291 14.848 105.003 13.704 105.003 12.424C105.003 11.16 105.283 10.024 105.843 9.016C106.403 8.008 107.163 7.216 108.123 6.64C109.083 6.048 110.171 5.752 111.387 5.752C112.427 5.752 113.363 5.976 114.195 6.424C115.043 6.856 115.731 7.432 116.259 8.152V1.288C116.259 0.967999 116.355 0.719999 116.547 0.543999C116.755 0.351999 117.003 0.256 117.291 0.256C117.595 0.256 117.843 0.351999 118.035 0.543999C118.227 0.719999 118.323 0.967999 118.323 1.288V12.496C118.291 13.744 117.979 14.872 117.387 15.88C116.811 16.872 116.027 17.664 115.035 18.256C114.043 18.832 112.923 19.12 111.675 19.12ZM111.675 17.296C112.571 17.296 113.363 17.08 114.051 16.648C114.755 16.216 115.307 15.64 115.707 14.92C116.123 14.184 116.331 13.352 116.331 12.424C116.331 11.512 116.123 10.688 115.707 9.952C115.307 9.216 114.755 8.64 114.051 8.224C113.363 7.792 112.571 7.576 111.675 7.576C110.795 7.576 109.995 7.792 109.275 8.224C108.571 8.64 108.011 9.216 107.595 9.952C107.179 10.688 106.971 11.512 106.971 12.424C106.971 13.352 107.179 14.184 107.595 14.92C108.011 15.64 108.571 16.216 109.275 16.648C109.995 17.08 110.795 17.296 111.675 17.296ZM124.012 19C123.708 19 123.46 18.912 123.268 18.736C123.076 18.544 122.98 18.288 122.98 17.968V6.904C122.98 6.584 123.076 6.336 123.268 6.16C123.46 5.968 123.708 5.872 124.012 5.872C124.316 5.872 124.556 5.968 124.732 6.16C124.924 6.336 125.02 6.584 125.02 6.904V17.968C125.02 18.288 124.924 18.544 124.732 18.736C124.556 18.912 124.316 19 124.012 19ZM123.988 3.496C123.604 3.496 123.276 3.36 123.004 3.088C122.732 2.8 122.596 2.464 122.596 2.08C122.596 1.68 122.732 1.352 123.004 1.096C123.292 0.839999 123.62 0.711999 123.988 0.711999C124.356 0.711999 124.676 0.839999 124.948 1.096C125.236 1.352 125.38 1.68 125.38 2.08C125.38 2.464 125.244 2.8 124.972 3.088C124.7 3.36 124.372 3.496 123.988 3.496ZM132.604 19C131.932 19 131.34 18.824 130.828 18.472C130.316 18.104 129.916 17.6 129.628 16.96C129.34 16.32 129.196 15.584 129.196 14.752V1.264C129.196 0.96 129.284 0.719999 129.46 0.543999C129.652 0.351999 129.9 0.256 130.204 0.256C130.492 0.256 130.724 0.351999 130.9 0.543999C131.092 0.719999 131.188 0.96 131.188 1.264V14.752C131.188 15.408 131.316 15.952 131.572 16.384C131.844 16.8 132.188 17.008 132.604 17.008H133.204C133.46 17.008 133.668 17.104 133.828 17.296C133.988 17.472 134.068 17.704 134.068 17.992C134.068 18.296 133.948 18.544 133.708 18.736C133.484 18.912 133.188 19 132.82 19H132.604ZM142.254 19.144C141.118 19.144 140.102 18.912 139.206 18.448C138.326 17.968 137.63 17.272 137.118 16.36C136.606 15.448 136.35 14.328 136.35 13V6.88C136.35 6.592 136.446 6.352 136.638 6.16C136.83 5.968 137.07 5.872 137.358 5.872C137.646 5.872 137.886 5.968 138.078 6.16C138.27 6.352 138.366 6.592 138.366 6.88V13C138.366 13.976 138.55 14.776 138.918 15.4C139.286 16.008 139.782 16.472 140.406 16.792C141.03 17.096 141.734 17.248 142.518 17.248C143.27 17.248 143.95 17.104 144.558 16.816C145.166 16.512 145.646 16.112 145.998 15.616C146.35 15.104 146.526 14.52 146.526 13.864H147.894C147.862 14.872 147.598 15.776 147.102 16.576C146.606 17.36 145.934 17.984 145.086 18.448C144.238 18.912 143.294 19.144 142.254 19.144ZM147.534 19C147.23 19 146.982 18.912 146.79 18.736C146.614 18.544 146.526 18.288 146.526 17.968V6.88C146.526 6.576 146.614 6.336 146.79 6.16C146.982 5.968 147.23 5.872 147.534 5.872C147.838 5.872 148.086 5.968 148.278 6.16C148.47 6.336 148.566 6.576 148.566 6.88V17.968C148.566 18.288 148.47 18.544 148.278 18.736C148.086 18.912 147.838 19 147.534 19ZM157.511 19.12C156.519 19.12 155.551 18.96 154.607 18.64C153.679 18.304 152.935 17.832 152.375 17.224C152.183 17.016 152.103 16.776 152.135 16.504C152.167 16.232 152.295 16.008 152.519 15.832C152.775 15.64 153.031 15.56 153.287 15.592C153.559 15.624 153.783 15.736 153.959 15.928C154.311 16.344 154.799 16.68 155.423 16.936C156.047 17.176 156.735 17.296 157.487 17.296C158.591 17.296 159.399 17.112 159.911 16.744C160.439 16.36 160.711 15.888 160.727 15.328C160.727 14.784 160.463 14.328 159.935 13.96C159.423 13.592 158.543 13.304 157.295 13.096C155.679 12.824 154.495 12.368 153.743 11.728C153.007 11.088 152.639 10.32 152.639 9.424C152.639 8.608 152.863 7.928 153.311 7.384C153.759 6.84 154.343 6.432 155.063 6.16C155.799 5.888 156.591 5.752 157.439 5.752C158.511 5.752 159.439 5.936 160.223 6.304C161.007 6.656 161.639 7.136 162.119 7.744C162.295 7.968 162.367 8.208 162.335 8.464C162.319 8.704 162.191 8.896 161.951 9.04C161.743 9.184 161.495 9.232 161.207 9.184C160.935 9.136 160.703 9.008 160.511 8.8C160.111 8.368 159.655 8.056 159.143 7.864C158.631 7.656 158.047 7.552 157.391 7.552C156.559 7.552 155.887 7.72 155.375 8.056C154.863 8.376 154.607 8.792 154.607 9.304C154.607 9.656 154.695 9.96 154.871 10.216C155.063 10.472 155.391 10.704 155.855 10.912C156.335 11.104 157.015 11.28 157.895 11.44C159.095 11.648 160.039 11.944 160.727 12.328C161.431 12.696 161.927 13.128 162.215 13.624C162.519 14.12 162.671 14.672 162.671 15.28C162.671 16.032 162.455 16.696 162.023 17.272C161.607 17.832 161.015 18.28 160.247 18.616C159.479 18.952 158.567 19.12 157.511 19.12ZM166.872 13.816C166.552 13.816 166.296 13.72 166.104 13.528C165.928 13.336 165.84 13.096 165.84 12.808V1.288C165.84 0.967999 165.928 0.719999 166.104 0.543999C166.296 0.351999 166.552 0.256 166.872 0.256C167.176 0.256 167.416 0.351999 167.592 0.543999C167.784 0.719999 167.88 0.967999 167.88 1.288V12.808C167.88 13.096 167.784 13.336 167.592 13.528C167.416 13.72 167.176 13.816 166.872 13.816ZM177.048 19C176.744 19 176.496 18.904 176.304 18.712C176.112 18.52 176.016 18.28 176.016 17.992V11.872C176.016 10.896 175.832 10.104 175.464 9.496C175.112 8.872 174.624 8.408 174 8.104C173.376 7.784 172.664 7.624 171.864 7.624C171.112 7.624 170.432 7.776 169.824 8.08C169.232 8.368 168.76 8.768 168.408 9.28C168.056 9.776 167.88 10.352 167.88 11.008H166.488C166.52 10 166.784 9.104 167.28 8.32C167.792 7.52 168.472 6.888 169.32 6.424C170.168 5.96 171.112 5.728 172.152 5.728C173.272 5.728 174.272 5.968 175.152 6.448C176.048 6.912 176.752 7.6 177.264 8.512C177.792 9.424 178.056 10.544 178.056 11.872V17.992C178.056 18.28 177.96 18.52 177.768 18.712C177.576 18.904 177.336 19 177.048 19ZM166.872 19C166.552 19 166.296 18.912 166.104 18.736C165.928 18.544 165.84 18.296 165.84 17.992V6.904C165.84 6.584 165.928 6.336 166.104 6.16C166.296 5.968 166.552 5.872 166.872 5.872C167.176 5.872 167.416 5.968 167.592 6.16C167.784 6.336 167.88 6.584 167.88 6.904V17.992C167.88 18.296 167.784 18.544 167.592 18.736C167.416 18.912 167.176 19 166.872 19ZM187.817 19.12C186.601 19.12 185.513 18.832 184.553 18.256C183.593 17.664 182.833 16.864 182.273 15.856C181.713 14.848 181.433 13.712 181.433 12.448C181.433 11.168 181.721 10.024 182.297 9.016C182.889 8.008 183.689 7.216 184.697 6.64C185.705 6.048 186.841 5.752 188.105 5.752C189.353 5.752 190.473 6.048 191.465 6.64C192.473 7.216 193.265 8.008 193.841 9.016C194.433 10.024 194.737 11.168 194.753 12.448L193.937 12.856C193.937 14.04 193.665 15.104 193.121 16.048C192.593 16.992 191.865 17.744 190.937 18.304C190.025 18.848 188.985 19.12 187.817 19.12ZM188.105 17.296C189.001 17.296 189.793 17.088 190.481 16.672C191.185 16.24 191.737 15.656 192.137 14.92C192.553 14.184 192.761 13.36 192.761 12.448C192.761 11.52 192.553 10.696 192.137 9.976C191.737 9.24 191.185 8.656 190.481 8.224C189.793 7.792 189.001 7.576 188.105 7.576C187.225 7.576 186.425 7.792 185.705 8.224C185.001 8.656 184.441 9.24 184.025 9.976C183.609 10.696 183.401 11.52 183.401 12.448C183.401 13.36 183.609 14.184 184.025 14.92C184.441 15.656 185.001 16.24 185.705 16.672C186.425 17.088 187.225 17.296 188.105 17.296ZM193.721 19C193.433 19 193.185 18.912 192.977 18.736C192.785 18.544 192.689 18.296 192.689 17.992V14.032L193.145 11.944L194.753 12.448V17.992C194.753 18.296 194.657 18.544 194.465 18.736C194.273 18.912 194.025 19 193.721 19Z" fill="white"/>
</svg>
