<svg width="100" height="100" viewBox="0 0 100 100" fill="none" xmlns="http://www.w3.org/2000/svg">
<rect width="100" height="100" rx="9" fill="white"/>
<path fill-rule="evenodd" clip-rule="evenodd" d="M10.996 81.827C11.66 82.491 12.5177 82.823 13.569 82.823C14.6203 82.823 15.478 82.491 16.142 81.827C16.806 81.163 17.138 80.3053 17.138 79.254V57.591H28.924C29.4189 57.591 29.9071 57.5785 30.3887 57.5536L43 77.6382V79.254C43 80.3053 43.332 81.163 43.996 81.827C44.66 82.491 45.5177 82.823 46.569 82.823H48.18H61.509C66.2677 82.823 70.6113 82.0483 74.54 80.499C78.524 78.8943 81.9547 76.6533 84.832 73.776C87.7093 70.8433 89.9227 67.4127 91.472 63.484C93.0213 59.5 93.796 55.1287 93.796 50.37C93.796 45.6113 93.0213 41.2677 91.472 37.339C89.9227 33.4103 87.7093 30.0073 84.832 27.13C81.9547 24.1973 78.524 21.9563 74.54 20.407C70.6113 18.8023 66.2677 18 61.509 18H46.569C45.5177 18 44.66 18.332 43.996 18.996C43.332 19.66 43 20.5177 43 21.569V22.7655C42.0044 21.9426 40.9091 21.2117 39.714 20.573C36.56 18.8577 32.9633 18 28.924 18H13.569C12.5177 18 11.66 18.332 10.996 18.996C10.332 19.66 10 20.5177 10 21.569V79.254C10 80.3053 10.332 81.163 10.996 81.827ZM43 37.1002V39.1518C42.8565 41.1956 42.2592 43.0536 41.208 44.726C39.9907 46.6073 38.303 48.1013 36.145 49.208C34.0423 50.2593 31.6353 50.785 28.924 50.785H17.138V24.723H28.924C31.6353 24.723 34.0423 25.304 36.145 26.466C38.303 27.5727 39.9907 29.1497 41.208 31.197C42.2592 32.9172 42.8565 34.8849 43 37.1002ZM43 52.9819V64.5875L37.643 56.047C38.3533 55.7691 39.0437 55.4538 39.714 55.101C40.9091 54.4829 42.0044 53.7765 43 52.9819ZM50.4293 76.432L50.138 75.9675V24.391H61.509C66.489 24.391 70.8603 25.4977 74.623 27.711C78.441 29.9243 81.429 32.9953 83.587 36.924C85.745 40.8527 86.824 45.3347 86.824 50.37C86.824 55.4053 85.745 59.8873 83.587 63.816C81.429 67.7447 78.441 70.8433 74.623 73.112C70.8603 75.3253 66.489 76.432 61.509 76.432H50.4293Z" fill="black"/>
</svg>
